# xmcd
#
# Track frame offsets:
#	150
#	14164
#	32718
#	52431
#	68271
#	85326
#	106211
#	118880
#	132097
#	146284
#	160169
#	178518
#	195334
#	210884
#
# Disc length: 3025 seconds
#
# Revision: 0
# Processed by: cddbd v1.5.2PL0 Copyright (c) Steve Scherf et al.
# Submitted via: EasyCDDAExtractor 2010.6.0.0
#
DISCID=bb0bcf0e
DTITLE=Various Artist - Mr Music Country  04 2011
DYEAR=2011
DGENRE=Country
TTITLE0=Troy Anderson - Cold beer
TTITLE1=Red Jenkins and Becky Hobbs - A Bible and a six pack
TTITLE2=Daniel Marion Hobbs - One heart beat away
TTITLE3=Eleven Hundred Springs - Show me the money (or I'll show you the door)
TTITLE4=Hermann Lammers Meyer - Fiddlin' man
TTITLE5=Never Mind (lead:R.Gullaksen and K.Rosseland) - The speed of the sound o
TTITLE5=f loneliness
TTITLE6=Jody Nix - She went a little bit farther
TTITLE7=Teea Goans - Walking the Floor over you
TTITLE8=Kent Wennman - I can help
TTITLE9=Amber Digby and Jonas Otter - Wrong end on the Stick
TTITLE10=Tom Corbett - Ease on down the River
TTITLE11=Kim Carson - Crying over you
TTITLE12=The Coal Porters - One is way too many
TTITLE13=Johnny Cash - Hardin wouldn't run
EXTD=
EXTT0=
EXTT1=
EXTT2=
EXTT3=
EXTT4=
EXTT5=
EXTT6=
EXTT7=
EXTT8=
EXTT9=
EXTT10=
EXTT11=
EXTT12=
EXTT13=
PLAYORDER=
